<svg width="127" height="128" viewBox="0 0 127 128" fill="none" xmlns="http://www.w3.org/2000/svg">
<g clip-path="url(#clip0_186_653)">
<rect width="127" height="128" rx="63.5" fill="#FF4E4E"/>
<path d="M127 0L0 0L0 128L127 128L127 0Z" fill="#003399"/>
<path d="M63.5134 14.2223L61.9283 19.1361H56.8036L60.9499 22.1725L59.3671 27.0863L63.5134 24.0498L67.6597 27.0863L66.0769 22.1725L70.2233 19.1361H65.0986L63.5134 14.2223Z" fill="#FFCC00"/>
<path d="M65.0986 104.469L63.5134 99.5557L61.9283 104.469H56.8036L60.9499 107.506L59.3671 112.42L63.5134 109.383L67.6597 112.42L66.0769 107.506L70.2233 104.469H65.0986Z" fill="#FFCC00"/>
<path d="M21.1793 66.7165L25.3256 69.7529L23.7428 64.8391L27.8891 61.8027H22.7644L21.1793 56.8889L19.5941 61.8027H14.4694L18.6157 64.8391L17.0329 69.7529L21.1793 66.7165Z" fill="#FFCC00"/>
<path d="M42.3451 19.9396L40.7599 24.851H35.6353L39.7816 27.8898L38.1988 32.8036L42.3451 29.7648L46.4914 32.8036L44.9086 27.8898L49.0549 24.851H43.9302L42.3451 19.9396Z" fill="#FFCC00"/>
<path d="M26.852 35.5557L25.2668 40.4694H20.1398L24.2884 43.5059L22.7033 48.4197L26.852 45.3832L30.9983 48.4197L29.4131 43.5059L33.5618 40.4694H28.4348L26.852 35.5557Z" fill="#FFCC00"/>
<path d="M28.4348 83.1361L26.852 78.2223L25.2668 83.1361H20.1398L24.2884 86.1725L22.7033 91.0863L26.852 88.0498L30.9983 91.0863L29.4131 86.1725L33.5618 83.1361H28.4348Z" fill="#FFCC00"/>
<path d="M43.9302 98.752L42.3451 93.8383L40.7599 98.752H35.6353L39.7816 101.791L38.1988 106.705L42.3451 103.666L46.4914 106.705L44.9086 101.791L49.0549 98.752H43.9302Z" fill="#FFCC00"/>
<path d="M112.555 61.8027H107.43L105.845 56.8889L104.26 61.8027H99.1353L103.282 64.8391L101.699 69.7529L105.845 66.7165L109.991 69.7529L108.409 64.8391L112.555 61.8027Z" fill="#FFCC00"/>
<path d="M84.6793 19.9396L83.0941 24.851H77.9694L82.1157 27.8898L80.5329 32.8036L84.6793 29.7648L88.8256 32.8036L87.2428 27.8898L91.3891 24.851H86.2644L84.6793 19.9396Z" fill="#FFCC00"/>
<path d="M97.6111 43.5059L96.0259 48.4197L100.172 45.3832L104.321 48.4197L102.736 43.5059L106.884 40.4694H101.757L100.172 35.5557L98.5895 40.4694H93.4624L97.6111 43.5059Z" fill="#FFCC00"/>
<path d="M101.757 83.1361L100.172 78.2223L98.5895 83.1361H93.4624L97.6111 86.1725L96.0259 91.0863L100.172 88.0498L104.321 91.0863L102.736 86.1725L106.884 83.1361H101.757Z" fill="#FFCC00"/>
<path d="M86.2644 98.752L84.6793 93.8383L83.0941 98.752H77.9694L82.1157 101.791L80.5329 106.705L84.6793 103.666L88.8256 106.705L87.2428 101.791L91.3891 98.752H86.2644Z" fill="#FFCC00"/>
</g>
<defs>
<clipPath id="clip0_186_653">
<rect width="127" height="128" rx="63.5" fill="white"/>
</clipPath>
</defs>
</svg>
